<svg xmlns="http://www.w3.org/2000/svg" width="257" height="271" viewBox="0 0 257 271">
<g>
<path d="M 201.34,27.77 L 223.92,38.97 L 227.02,40.51 L 232.87,43.49 L 234.28,44.22 L 236.92,45.59 L 238.21,46.27 L 240.56,47.52 L 241.69,48.12 L 243.67,49.21 L 244.60,49.73 L 246.15,50.61 L 246.87,51.03 L 247.91,51.67 L 248.85,52.34 L 250.00,53.40 L 251.59,55.41 L 251.94,55.95 L 252.50,57.14 L 252.76,57.76 L 253.15,59.22 L 253.33,59.99 L 253.58,61.84 L 253.69,62.82 L 253.83,65.17 L 253.89,66.42 L 253.95,69.40 L 253.98,74.70 L 253.98,76.11 L 253.97,78.67 L 253.97,79.91 L 253.94,82.15 L 253.91,83.24 L 253.83,85.20 L 253.77,86.15 L 253.60,87.88 L 253.40,89.55 L 252.61,92.35 L 252.14,93.68 L 250.62,96.03 L 250.19,96.61 L 249.14,97.72 L 248.58,98.28 L 247.27,99.39 L 246.58,99.95 L 244.97,101.10 L 244.13,101.68 L 242.20,102.90 L 241.19,103.52 L 238.91,104.85 L 237.73,105.54 L 235.06,107.02 L 233.68,107.78 L 230.61,109.46 L 225.50,112.22 L 224.54,112.74 L 222.14,114.05 L 220.87,114.73 L 217.94,116.32 L 216.43,117.15 L 213.08,118.97 L 211.37,119.90 L 207.72,121.89 L 204.02,123.91 L 196.17,128.19 L 184.64,134.48 L 180.95,136.50 L 173.96,140.22 L 172.28,141.10 L 169.11,142.75 L 167.57,143.55 L 164.75,144.98 L 163.39,145.66 L 161.00,146.84 L 159.86,147.39 L 157.98,148.27 L 157.11,148.67 L 155.82,149.21 L 154.64,149.60 L 153.78,149.71 L 151.72,149.50 L 150.72,149.33 L 149.11,148.65 L 148.49,148.30 L 147.46,147.60 L 146.99,147.23 L 146.22,146.25 L 145.87,145.69 L 145.33,144.06 L 145.20,143.60 L 144.99,142.49 L 144.89,141.91 L 144.72,140.52 L 144.64,139.79 L 144.51,138.08 L 144.44,137.18 L 144.34,135.10 L 144.30,134.01 L 144.23,131.52 L 144.19,130.22 L 144.14,127.27 L 144.12,125.74 L 144.09,122.29 L 144.08,120.50 L 144.06,116.52 L 144.05,114.45 L 144.04,109.87 L 144.04,102.30 L 144.03,99.06 L 144.05,93.06 L 144.06,90.13 L 144.09,84.76 L 144.12,82.16 L 144.18,77.45 L 144.21,75.18 L 144.22,74.54 L 144.21,75.61 L 144.18,79.16 L 144.17,81.12 L 144.17,85.20 L 144.17,87.45 L 144.18,92.09 L 144.19,94.65 L 144.22,99.92 L 144.23,102.80 L 144.26,107.18 L 144.27,109.17 L 144.29,113.02 L 144.31,114.75 L 144.33,118.07 L 144.34,119.54 L 144.36,122.34 L 144.37,123.55 L 144.39,125.85 L 144.40,126.81 L 144.42,128.60 L 144.43,129.31 L 144.45,130.61 L 144.46,131.08 L 144.48,131.89 L 144.49,132.12 L 144.51,132.46 L 144.52,132.46 L 144.54,132.33 L 144.55,132.09 L 144.57,131.51 L 144.59,131.05 L 144.61,130.01 L 144.62,129.33 L 144.65,127.85 L 144.67,126.95 L 144.70,125.04 L 144.71,123.93 L 144.74,121.60 L 144.76,120.28 L 144.80,117.53 L 144.82,116.00 L 145.17,88.50 L 158.21,82.00 L 163.95,79.10 L 167.34,77.34 L 168.82,76.55 L 171.67,75.00 L 172.90,74.30 L 175.24,72.95 L 176.24,72.33 L 178.13,71.12 L 178.92,70.57 L 180.40,69.50 L 181.00,69.00 L 182.12,68.03 L 182.55,67.57 L 183.35,66.67 L 183.64,66.24 L 184.62,64.21 L 184.86,63.34 L 184.95,62.80 L 185.13,61.65 L 185.20,60.93 L 185.33,59.39 L 185.38,58.44 L 185.47,56.42 L 185.50,55.19 L 185.56,52.59 L 185.58,51.04 L 185.61,47.75 L 185.63,45.82 L 185.75,28.14 L 183.13,29.14 L 180.99,30.06 L 185.69,27.67 M 145.83,54.53 L 145.54,55.79 L 145.27,57.11 L 145.16,57.86 L 144.94,59.43 L 144.84,60.33 L 144.67,62.20 L 144.60,63.27 L 144.47,65.50 L 144.44,66.20 L 144.45,65.92 L 144.51,64.35 L 144.64,61.77 L 144.71,60.58 L 144.86,58.76 L 145.11,56.91 L 145.32,55.94 L 145.91,54.14 L 146.23,53.27 L 146.53,52.71 M 166.49,37.50 L 164.75,38.49 L 161.32,40.47 L 159.72,41.43 L 156.63,43.31 L 155.30,44.16 L 152.81,45.79 L 151.88,46.46 L 151.18,46.97 L 151.29,46.87 L 152.22,46.07 L 154.50,44.43 L 155.72,43.59 L 158.63,41.81 L 160.18,40.89 L 163.80,38.89 L 166.83,37.31 Z" fill="rgba(19,46,71,1)"/>
<path d="M 185.63,45.82 L 185.61,47.75 L 185.58,51.04 L 185.56,52.59 L 185.50,55.19 L 185.47,56.42 L 185.38,58.44 L 185.33,59.39 L 185.20,60.93 L 185.13,61.65 L 184.95,62.80 L 184.86,63.34 L 184.62,64.21 L 183.64,66.24 L 183.35,66.67 L 182.55,67.57 L 182.12,68.03 L 181.00,69.00 L 180.40,69.50 L 178.92,70.57 L 178.13,71.12 L 176.24,72.33 L 175.24,72.95 L 172.90,74.30 L 171.67,75.00 L 168.82,76.55 L 167.34,77.34 L 163.95,79.10 L 158.21,82.00 L 145.17,88.50 L 144.82,116.00 L 144.80,117.53 L 144.76,120.28 L 144.74,121.60 L 144.71,123.93 L 144.70,125.04 L 144.67,126.95 L 144.65,127.85 L 144.62,129.33 L 144.61,130.01 L 144.59,131.05 L 144.57,131.51 L 144.55,132.09 L 144.54,132.33 L 144.52,132.46 L 144.51,132.46 L 144.49,132.12 L 144.48,131.89 L 144.46,131.08 L 144.45,130.61 L 144.43,129.31 L 144.42,128.60 L 144.40,126.81 L 144.39,125.85 L 144.37,123.55 L 144.36,122.34 L 144.34,119.54 L 144.33,118.07 L 144.31,114.75 L 144.29,113.02 L 144.27,109.17 L 144.26,107.18 L 144.23,102.80 L 144.22,99.92 L 144.19,94.65 L 144.18,92.09 L 144.17,87.45 L 144.17,85.20 L 144.17,81.12 L 144.18,79.16 L 144.21,75.61 L 144.23,73.90 L 144.29,70.85 L 144.33,69.37 L 144.42,66.75 L 144.47,65.50 L 144.60,63.27 L 144.67,62.20 L 144.84,60.33 L 144.94,59.43 L 145.16,57.86 L 145.27,57.11 L 145.54,55.79 L 145.83,54.53 L 146.57,52.60 L 146.98,51.71 L 147.99,50.22 L 149.85,48.10 L 150.05,47.90 L 150.66,47.38 L 151.00,47.10 L 151.88,46.46 L 152.81,45.79 L 155.30,44.16 L 156.63,43.31 L 159.72,41.43 L 161.32,40.47 L 164.75,38.49 L 166.49,37.50 L 170.00,35.57 L 171.74,34.62 L 175.07,32.89 L 176.69,32.06 L 179.58,30.67 L 183.13,29.14 L 185.75,28.14 Z" fill="rgba(44,76,106,1)"/>
<path d="M 247.82,144.27 L 248.42,144.47 L 249.50,145.15 L 251.08,146.58 L 251.68,147.22 L 252.48,148.48 L 252.65,148.87 L 252.92,149.92 L 253.05,150.50 L 253.23,152.12 L 253.32,153.02 L 253.44,155.42 L 253.47,156.08 L 253.52,157.59 L 253.55,158.38 L 253.59,160.16 L 253.61,161.09 L 253.64,163.18 L 253.66,164.26 L 253.70,166.68 L 253.71,167.93 L 253.75,170.71 L 253.80,175.31 L 253.82,177.57 L 253.88,181.64 L 253.91,183.61 L 253.95,187.14 L 253.96,188.84 L 253.95,191.89 L 253.94,193.36 L 253.85,195.97 L 253.80,197.23 L 253.61,199.47 L 253.50,200.55 L 253.17,202.47 L 252.99,203.39 L 252.51,205.05 L 252.24,205.85 L 251.57,207.29 L 251.20,207.99 L 250.31,209.27 L 249.83,209.90 L 248.69,211.08 L 248.08,211.67 L 246.67,212.81 L 245.92,213.38 L 244.20,214.52 L 243.30,215.10 L 241.24,216.31 L 240.17,216.93 L 237.75,218.26 L 236.49,218.94 L 233.68,220.44 L 229.00,222.95 L 226.99,224.03 L 223.23,226.05 L 221.39,227.04 L 217.95,228.90 L 216.26,229.80 L 213.11,231.50 L 211.57,232.34 L 208.68,233.89 L 205.85,235.42 L 200.88,238.10 L 198.49,239.39 L 194.24,241.70 L 192.19,242.81 L 188.45,244.85 L 186.63,245.84 L 183.19,247.72 L 173.04,253.30 L 171.10,254.38 L 167.68,256.19 L 166.05,257.05 L 163.18,258.46 L 161.82,259.11 L 159.44,260.12 L 158.30,260.58 L 156.34,261.21 L 155.40,261.49 L 153.78,261.77 L 153.00,261.87 L 151.65,261.83 L 151.00,261.76 L 149.86,261.40 L 149.30,261.19 L 148.29,260.54 L 147.98,260.32 L 147.35,259.62 L 147.03,259.25 L 146.42,258.32 L 145.04,255.22 L 144.96,254.92 L 144.81,253.90 L 144.74,253.32 L 144.61,251.80 L 144.55,250.98 L 144.44,249.03 L 144.38,248.01 L 144.30,245.70 L 144.21,243.33 L 144.10,237.83 L 144.06,235.00 L 144.04,229.06 L 144.03,226.09 L 144.09,220.29 L 144.13,217.47 L 144.27,212.42 L 144.31,211.23 L 144.41,209.09 L 144.46,208.07 L 144.58,206.33 L 144.64,205.51 L 144.78,204.23 L 145.01,202.91 L 145.29,201.91 L 145.91,200.15 L 146.26,199.30 L 147.32,197.68 L 147.93,196.86 L 149.79,195.11 L 150.33,194.65 L 151.61,193.67 L 152.29,193.17 L 153.90,192.07 L 154.76,191.51 L 156.75,190.26 L 157.80,189.62 L 160.21,188.20 L 161.48,187.46 L 164.37,185.83 L 165.88,184.98 L 169.29,183.10 L 171.06,182.13 L 175.04,179.99 L 177.11,178.87 L 181.70,176.42 L 184.07,175.15 L 189.33,172.36 L 198.00,167.77 L 198.65,167.42 L 200.26,166.57 L 201.10,166.12 L 203.03,165.08 L 205.04,164.00 L 209.72,161.47 L 212.12,160.16 L 217.18,157.41 L 224.55,153.37 L 225.74,152.72 L 227.94,151.52 L 229.01,150.94 L 230.98,149.89 L 232.90,148.88 L 236.13,147.27 L 237.65,146.53 L 240.19,145.44 L 241.38,144.96 L 243.36,144.37 L 244.29,144.13 L 245.84,143.99 L 246.57,143.98 Z" fill="rgba(120,33,47,1)"/>
<path d="M 11.98,145.22 L 12.70,145.29 L 14.51,145.81 L 15.49,146.14 L 17.92,147.20 L 18.58,147.50 L 20.04,148.22 L 20.80,148.60 L 22.48,149.47 L 23.34,149.93 L 25.26,150.96 L 26.24,151.50 L 28.42,152.70 L 29.54,153.33 L 31.99,154.71 L 36.00,156.99 L 36.89,157.50 L 39.31,158.85 L 40.60,159.56 L 43.53,161.16 L 45.02,161.98 L 48.10,163.65 L 52.50,166.00 L 55.25,167.46 L 61.18,170.65 L 62.58,171.40 L 65.08,172.75 L 68.00,174.35 L 68.76,174.77 L 70.96,175.99 L 72.15,176.65 L 74.97,178.20 L 84.00,183.20 L 85.44,183.99 L 88.86,185.86 L 90.62,186.82 L 94.34,188.82 L 96.20,189.82 L 99.77,191.73 L 104.46,194.20 L 106.10,195.06 L 109.03,196.71 L 110.44,197.53 L 112.95,199.13 L 114.16,199.93 L 116.27,201.51 L 117.27,202.30 L 119.01,203.87 L 119.83,204.66 L 121.21,206.25 L 121.85,207.05 L 122.90,208.68 L 123.38,209.50 L 124.11,211.18 L 124.89,213.80 L 124.97,214.20 L 125.12,215.30 L 125.20,215.90 L 125.33,217.36 L 125.39,218.13 L 125.51,219.90 L 125.56,220.82 L 125.66,222.84 L 125.75,224.91 L 125.86,229.58 L 125.91,231.96 L 125.95,236.93 L 125.96,239.41 L 125.91,244.25 L 125.87,246.61 L 125.74,250.88 L 125.70,251.89 L 125.61,253.74 L 125.56,254.63 L 125.45,256.18 L 125.39,256.92 L 125.25,258.13 L 125.03,259.50 L 124.79,260.52 L 123.78,262.55 L 123.20,263.54 L 121.73,265.29 L 120.97,266.09 L 119.33,267.24 L 117.00,267.95 L 116.79,267.95 L 116.12,267.83 L 115.75,267.76 L 114.84,267.53 L 113.89,267.28 L 111.76,266.58 L 110.73,266.21 L 108.45,265.20 L 107.91,264.95 L 106.93,264.44 L 105.76,263.77 L 105.45,263.56 L 104.21,262.83 L 103.51,262.43 L 101.67,261.39 L 100.69,260.84 L 98.48,259.62 L 95.00,257.74 L 93.61,257.00 L 91.16,255.69 L 89.98,255.05 L 87.77,253.87 L 86.68,253.28 L 84.48,252.09 L 83.36,251.48 L 80.94,250.16 L 79.69,249.48 L 76.82,247.91 L 75.31,247.08 L 71.77,245.14 L 70.83,244.62 L 68.79,243.50 L 67.74,242.92 L 65.44,241.66 L 64.27,241.01 L 61.70,239.59 L 57.50,237.28 L 54.52,235.64 L 49.15,232.69 L 46.57,231.27 L 41.94,228.73 L 39.72,227.51 L 35.76,225.35 L 33.86,224.31 L 30.51,222.48 L 28.90,221.60 L 26.07,220.07 L 24.72,219.33 L 22.34,218.05 L 21.21,217.44 L 19.22,216.39 L 16.59,215.00 L 15.94,214.66 L 14.49,213.72 L 13.76,213.22 L 12.29,212.07 L 11.57,211.49 L 10.26,210.28 L 8.66,208.54 L 5.50,204.59 L 5.20,177.16 L 5.19,175.46 L 5.15,172.37 L 5.14,170.88 L 5.11,168.17 L 5.10,166.87 L 5.08,164.52 L 5.08,163.39 L 5.07,161.37 L 5.07,160.40 L 5.08,158.68 L 5.08,157.86 L 5.10,156.41 L 5.13,155.03 L 5.23,152.95 L 5.29,152.01 L 5.48,150.66 L 5.58,150.05 L 5.86,149.19 L 7.13,147.36 L 7.61,146.85 L 8.54,146.08 L 9.02,145.73 L 10.07,145.33 L 10.63,145.19 Z" fill="rgba(227,70,83,1)"/>
<path d="M 112.72,58.70 L 114.51,59.68 L 116.25,60.65 L 118.97,62.53 L 120.23,63.50 L 122.11,65.79 L 122.53,66.40 L 123.25,67.81 L 123.58,68.54 L 124.14,70.22 L 124.40,71.09 L 124.81,73.11 L 125.01,74.17 L 125.30,76.58 L 125.43,77.85 L 125.62,80.73 L 125.70,82.24 L 125.81,85.66 L 125.85,87.44 L 125.89,91.44 L 125.90,93.53 L 125.89,98.19 L 125.89,100.61 L 125.85,106.00 L 125.78,114.96 L 125.50,155.18 L 123.14,157.09 L 122.37,157.71 L 120.73,158.46 L 119.88,158.75 L 118.00,158.84 L 117.02,158.80 L 114.81,158.22 L 113.65,157.84 L 111.00,156.59 L 108.35,155.23 L 102.67,152.28 L 99.86,150.81 L 94.62,148.04 L 93.39,147.38 L 91.18,146.19 L 90.13,145.63 L 88.38,144.67 L 87.58,144.23 L 86.43,143.58 L 85.50,143.02 L 85.38,142.93 L 85.01,142.68 L 84.79,142.54 L 84.14,142.15 L 83.77,141.93 L 82.70,141.33 L 82.11,141.00 L 80.52,140.12 L 79.64,139.63 L 77.39,138.40 L 76.17,137.74 L 73.14,136.09 L 72.33,135.65 L 70.53,134.67 L 69.61,134.17 L 67.58,133.07 L 66.53,132.50 L 64.24,131.26 L 60.51,129.24 L 59.14,128.50 L 55.92,126.73 L 54.27,125.81 L 50.81,123.87 L 49.09,122.90 L 45.80,121.03 L 41.51,118.54 L 40.27,117.82 L 37.34,116.15 L 35.83,115.31 L 32.65,113.56 L 31.06,112.70 L 28.01,111.08 L 24.00,109.01 L 22.79,108.41 L 20.59,107.29 L 19.53,106.73 L 17.59,105.68 L 15.72,104.64 L 12.70,102.64 L 11.30,101.63 L 9.13,99.50 L 8.14,98.39 L 6.70,95.85 L 6.06,94.51 L 5.22,91.31 L 5.04,90.46 L 4.77,88.58 L 4.65,87.61 L 4.49,85.48 L 4.42,84.38 L 4.36,81.96 L 4.33,80.71 L 4.34,77.96 L 4.35,76.55 L 4.42,73.45 L 4.57,68.36 L 4.64,66.02 L 4.78,62.11 L 4.85,60.27 L 4.98,57.26 L 5.05,55.85 L 5.21,53.58 L 5.29,52.53 L 5.48,50.85 L 5.58,50.07 L 5.83,48.82 L 5.96,48.24 L 6.28,47.28 L 7.65,44.72 L 8.35,43.62 L 10.44,41.55 L 10.98,41.08 L 12.12,40.26 L 13.79,39.35 L 14.81,38.91 L 16.85,37.98 L 17.32,37.76 L 18.12,37.37 L 19.00,36.92 L 19.21,36.81 L 20.17,36.31 L 20.73,36.02 L 22.26,35.26 L 23.08,34.85 L 24.97,33.91 L 28.00,32.42 L 29.03,31.92 L 31.03,30.94 L 32.00,30.46 L 33.74,29.59 L 34.55,29.18 L 35.83,28.54 L 37.00,27.93 L 35.80,28.56 L 34.49,29.23 L 33.64,29.65 L 31.84,30.56 L 30.83,31.06 L 28.75,32.10 L 27.67,32.63 L 24.04,34.44 L 22.05,35.43 L 21.26,35.84 L 19.79,36.61 L 19.23,36.92 L 18.22,37.50 L 17.86,37.73 L 17.23,38.17 L 17.04,38.34 L 16.72,38.68 L 16.66,38.83 L 16.63,39.37 L 16.82,39.67 L 17.23,40.02 L 17.77,40.39 L 18.15,40.63 L 18.99,41.15 L 19.51,41.45 L 20.62,42.10 L 21.27,42.47 L 24.06,44.03 L 25.70,44.91 L 29.14,46.75 L 31.00,47.71 L 38.01,51.34 L 42.53,53.69 L 44.70,54.82 L 48.95,57.03 L 50.95,58.08 L 54.86,60.12 L 56.66,61.06 L 60.16,62.90 L 61.73,63.72 L 64.75,65.31 L 66.05,66.00 L 68.51,67.31 L 69.51,67.84 L 71.34,68.83 L 72.00,69.19 L 74.54,70.56 L 76.80,71.78 L 78.12,72.48 L 83.75,75.49 L 86.50,76.95 L 93.31,80.58 L 97.64,82.90 L 99.67,84.00 L 103.64,86.16 L 105.46,87.15 L 108.97,89.08 L 110.52,89.95 L 113.48,91.60 L 114.72,92.31 L 117.04,93.64 L 117.92,94.16 L 119.50,95.11 L 119.99,95.42 L 120.74,95.94 L 120.78,96.02 L 121.08,96.36 L 121.38,96.48 L 122.06,96.67 L 122.44,96.67 L 123.17,96.06 L 123.60,95.09 L 123.78,94.38 L 124.11,92.80 L 124.24,91.84 L 124.48,89.80 L 124.55,88.65 L 124.75,83.77 L 124.65,81.18 L 124.34,76.00 L 123.97,73.69 L 123.41,70.61 L 122.99,68.87 L 122.73,68.11 L 122.17,66.67 L 121.81,66.03 L 121.01,64.79 L 120.49,64.21 L 119.36,63.07 L 118.64,62.50 L 117.08,61.36 L 116.12,60.75 L 114.05,59.50 L 112.78,58.79 L 110.10,57.33 L 109.64,57.09 L 111.71,58.17 Z" fill="rgba(235,162,52,1)"/>
<path d="M 120.78,96.02 L 120.74,95.94 L 119.99,95.42 L 119.50,95.11 L 117.92,94.16 L 117.04,93.64 L 114.72,92.31 L 113.48,91.60 L 110.52,89.95 L 108.97,89.08 L 105.46,87.15 L 103.64,86.16 L 99.67,84.00 L 97.64,82.90 L 93.31,80.58 L 86.50,76.95 L 83.75,75.49 L 78.12,72.48 L 76.80,71.78 L 74.54,70.56 L 72.00,69.19 L 71.34,68.83 L 69.51,67.84 L 68.51,67.31 L 66.05,66.00 L 64.75,65.31 L 61.73,63.72 L 60.16,62.90 L 56.66,61.06 L 54.86,60.12 L 50.95,58.08 L 48.95,57.03 L 44.70,54.82 L 42.53,53.69 L 38.01,51.34 L 31.00,47.71 L 29.14,46.75 L 25.70,44.91 L 24.06,44.03 L 21.27,42.47 L 20.62,42.10 L 19.51,41.45 L 18.99,41.15 L 18.15,40.63 L 17.77,40.39 L 17.23,40.02 L 16.82,39.67 L 16.63,39.37 L 16.66,38.83 L 16.72,38.68 L 17.04,38.34 L 17.23,38.17 L 17.86,37.73 L 18.22,37.50 L 19.23,36.92 L 19.79,36.61 L 21.26,35.84 L 22.05,35.43 L 24.04,34.44 L 27.67,32.63 L 28.75,32.10 L 30.83,31.06 L 31.84,30.56 L 33.64,29.65 L 34.49,29.23 L 35.80,28.56 L 37.00,27.93 L 37.23,27.80 L 38.33,27.19 L 38.97,26.84 L 40.72,25.88 L 41.66,25.37 L 43.85,24.17 L 44.98,23.55 L 47.40,22.22 L 49.84,20.89 L 54.51,18.34 L 55.59,17.75 L 57.43,16.74 L 59.50,15.62 L 60.19,15.24 L 61.85,14.39 L 62.72,13.95 L 64.62,13.01 L 66.56,12.07 L 70.53,10.22 L 71.48,9.79 L 73.22,9.01 L 74.06,8.65 L 75.45,8.06 L 76.10,7.79 L 77.00,7.46 L 77.65,7.32 L 77.69,7.36 L 77.69,7.71 L 77.68,7.92 L 77.58,8.55 L 76.98,11.06 L 76.47,12.86 L 75.96,16.50 L 75.79,18.32 L 75.94,21.96 L 76.09,23.77 L 76.87,27.33 L 77.34,29.09 L 78.72,32.49 L 79.48,34.16 L 81.41,37.33 L 82.45,38.88 L 84.91,41.74 L 86.21,43.13 L 89.16,45.61 L 94.11,48.82 L 94.85,49.22 L 96.91,50.32 L 98.02,50.91 L 100.56,52.26 L 108.50,56.48 L 110.10,57.33 L 112.78,58.79 L 114.05,59.50 L 116.12,60.75 L 117.08,61.36 L 118.64,62.50 L 119.36,63.07 L 120.49,64.21 L 121.01,64.79 L 121.81,66.03 L 122.17,66.67 L 122.73,68.11 L 122.99,68.87 L 123.41,70.61 L 123.97,73.69 L 124.34,76.00 L 124.65,81.18 L 124.75,83.77 L 124.55,88.65 L 124.48,89.80 L 124.24,91.84 L 124.11,92.80 L 123.78,94.38 L 123.60,95.09 L 123.17,96.06 L 122.44,96.67 L 122.06,96.67 L 121.38,96.48 L 121.08,96.36 Z" fill="rgba(247,177,67,1)"/>
</g>
</svg>